HIERARCHY
ROOT Hip
{
	OFFSET 0.00 0.00 0.00
	CHANNELS 6 Xposition Yposition Zposition Xrotation Yrotation Zrotation
	JOINT Abdomen
	{
		OFFSET 0.00000 0.03937 0.00000
		CHANNELS 3 Xrotation Zrotation Yrotation
		JOINT Chest
		{
			OFFSET 0.00000 8.42896 0.00000
			CHANNELS 3 Xrotation Zrotation Yrotation
			JOINT Neck
			{
				OFFSET 0.00000 7.29157 0.00000
				CHANNELS 3 Xrotation Zrotation Yrotation
				JOINT Head_comp
				{
					OFFSET 0.00000 4.22110 0.00000
					CHANNELS 3 Xrotation Yrotation Zrotation
					End Site
					{
						OFFSET 0.00000 4.22110 0.00000
					}
				}
			}
			JOINT Left_Collar
			{
				OFFSET 0.00000 7.29157 0.00000
				CHANNELS 2 Yrotation Zrotation
				JOINT Left_Shoulder
				{
					OFFSET 5.90550 0.00000 0.00000
					CHANNELS 3 Xrotation Yrotation Zrotation
					JOINT Left_Forearm
					{
						OFFSET 11.59585 0.00000 0.00000
						CHANNELS 2 Yrotation Xrotation
						JOINT Left_Hand
						{
							OFFSET 8.38509 0.00000 0.00000
							CHANNELS 2 Zrotation Yrotation
							JOINT L1ProxPhalanx
							{
								OFFSET 1.32642 0.01652 -0.91353
								CHANNELS 3 Yrotation Zrotation Xrotation
								JOINT L1MidPhalanx
								{
									OFFSET 0.56037 -0.04452 -1.10949
									CHANNELS 1 Zrotation
									JOINT L1DistPhalanx
									{
										OFFSET 0.56894 -0.31394 -0.93677
										CHANNELS 1 Zrotation
										End Site
										{
											OFFSET 0.15316 0.30870 -1.10710
										}
									}
								}
							}
						    JOINT L2ProxPhalanx
							{
								OFFSET 1.09197 2.42158 -0.70498
								CHANNELS 2 Yrotation Zrotation
								JOINT L2MidPhalanx
								{
									OFFSET 0.54914 1.69807 0.00037
									CHANNELS 1 Zrotation
									JOINT L2DistPhalanx
									{
										OFFSET 0.34223 0.98477 -0.13890
										CHANNELS 1 Zrotation
										End Site
										{
											OFFSET 0.30414 0.90123 -0.07454
										}
									}
								}
							}
							JOINT L3ProxPhalanx
							{
								OFFSET 0.20570 2.50174 -0.52444
								CHANNELS 2 Yrotation Zrotation
								JOINT L3MidPhalanx
								{
									OFFSET -0.25811 1.79891 -0.09553
									CHANNELS 1 Zrotation
									JOINT L3DistPhalanx
									{
										OFFSET -0.15680 1.09225 -0.05298
										CHANNELS 1 Zrotation
										End Site
										{
											OFFSET -0.15297 1.06215 -0.02141
										}
									}
								}
							}
							JOINT L4ProxPhalanx
							{
								OFFSET -0.68298 2.32110 -0.37433
								CHANNELS 2 Yrotation Zrotation
								JOINT L4MidPhalanx
								{
									OFFSET -0.56320 1.55045 -0.08792
									CHANNELS 1 Zrotation
									JOINT L4DistPhalanx
									{
										OFFSET -0.34522 0.95085 -0.05080
										CHANNELS 1 Zrotation
										End Site
										{
											OFFSET -0.35953 0.99671 -0.01102
										}
									}
								}
							}
							JOINT L5ProxPhalanx
							{
								OFFSET -1.60546 2.01050 -0.41468
								CHANNELS 2 Yrotation Zrotation
								JOINT L5MidPhalanx
								{
									OFFSET -0.81697 0.78962 -0.37932
									CHANNELS 1 Zrotation
									JOINT L5DistPhalanx
									{
										OFFSET -0.51445 0.51600 -0.16745
										CHANNELS 1 Zrotation
										End Site
										{
											OFFSET -0.66687 0.68407 -0.15932
										}
									}
								}
							}
						}
					}
				}
			}
			JOINT Right_Collar
			{
				OFFSET 0.00000 7.29157 0.00000
				CHANNELS 2 Yrotation Zrotation
				JOINT Right_Shoulder
				{
					OFFSET -5.90550 0.00000 0.00000
					CHANNELS 3 Xrotation Yrotation Zrotation
					JOINT Right_Forearm
					{
						OFFSET -11.59585 -0.00000 0.00000
						CHANNELS 2 Yrotation Xrotation
						JOINT Right_Hand
						{
							OFFSET -8.38509 -0.00000 0.00000
							CHANNELS 2 Zrotation Yrotation
							JOINT R1ProxPhalanx
							{
								OFFSET -1.27353 -0.34685 -0.51300
								CHANNELS 3 Yrotation Zrotation Xrotation
								JOINT R1MidPhalanx
								{
									OFFSET -0.97380 1.27673 -0.24634
									CHANNELS 1 Zrotation
									JOINT R1DistPhalanx
									{
										OFFSET -0.70681 0.85176 -0.10722
										CHANNELS 1 Zrotation
										End Site
										{
											OFFSET -0.60213 0.74049 -0.11612
										}
									}
								}
							}
						    JOINT R2ProxPhalanx
							{
								OFFSET -1.68547 2.46874 -0.24056
								CHANNELS 2 Yrotation Zrotation
								JOINT R2MidPhalanx
								{
									OFFSET -0.10277 1.47086 -0.45732
									CHANNELS 1 Zrotation
									JOINT R2DistPhalanx
									{
										OFFSET -0.08662 0.93830 -0.07738
										CHANNELS 1 Zrotation
										End Site
										{
											OFFSET -0.07343 0.79543 -0.06560
										}
									}
								}
							}
							JOINT R3ProxPhalanx
							{
								OFFSET -0.85407 2.65552 -0.00744
								CHANNELS 2 Yrotation Zrotation
								JOINT R3MidPhalanx
								{
									OFFSET -0.20884 1.70284 -0.28882
									CHANNELS 1 Zrotation
									JOINT R3DistPhalanx
									{
										OFFSET -0.13336 1.10092 -0.23410
										CHANNELS 1 Zrotation
										End Site
										{
											OFFSET -0.11503 0.94711 -0.19274
										}
									}
								}
							}
							JOINT R4ProxPhalanx
							{
								OFFSET 0.20418 2.54564 0.23484
								CHANNELS 2 Yrotation Zrotation
								JOINT R4MidPhalanx
								{
									OFFSET -0.04892 1.76626 -0.37155
									CHANNELS 1 Zrotation
									JOINT R4DistPhalanx
									{
										OFFSET -0.02641 0.95308 -0.21249
										CHANNELS 1 Zrotation
										End Site
										{
											OFFSET -0.02537 0.91606 -0.19270
										}
									}
								}
							}
							JOINT R5ProxPhalanx
							{
								OFFSET 0.88895 2.32064 0.25776
								CHANNELS 2 Yrotation Zrotation
								JOINT R5MidPhalanx
								{
									OFFSET 0.43367 1.29723 -0.28031
									CHANNELS 1 Zrotation
									JOINT R5DistPhalanx
									{
										OFFSET 0.24248 0.73091 -0.16650
										CHANNELS 1 Zrotation
										End Site
										{
											OFFSET 0.26427 0.78713 -0.16490
										}
									}
								}
							}
						}
					}
				}
			}
		}
	}
	JOINT Left_Thigh
	{
		OFFSET 3.93700 0.00000 0.00000
		CHANNELS 3 Xrotation Zrotation Yrotation
		JOINT Left_Shin
		{
			OFFSET 0.00000 -18.44568 0.00000
			CHANNELS 1 Xrotation
			JOINT Left_Foot
			{
				OFFSET -0.00000 -15.49322 0.19672
				CHANNELS 2 Xrotation Zrotation
				JOINT Left_Toe
				{
					OFFSET 0.00000 -0.82039 5.66291
					CHANNELS 1 Xrotation
					End Site
					{
						OFFSET 0.00000 0.00000 1.71250
					}
				}
			}
		}
	}
	JOINT Right_Thigh
	{
		OFFSET -3.93700 0.00000 0.00000
		CHANNELS 3 Xrotation Zrotation Yrotation
		JOINT Right_Shin
		{
			OFFSET -0.00000 -18.44568 -0.00000
			CHANNELS 1 Xrotation
			JOINT Right_Foot
			{
				OFFSET -0.00000 -15.49322 0.19672
				CHANNELS 2 Xrotation Zrotation
				JOINT Right_Toe
				{
					OFFSET 0.00000 -0.96513 5.62412
					CHANNELS 1 Xrotation
					End Site
					{
						OFFSET 0.00000 0.00000 1.44139
					}
				}
			}
		}
	}
}
MOTION
Frames: 12
Frame Time: 0.008333
6.1206 38.1176 -10.901 13.4 4.7145 1.6417 -17.3944 -5.3693 -0.4097 -3.9493 -0.5839 -1.4081 22.5946 6.8704 -7.8636 -16.5883 -8.9589 -1.3755 -0.0157 0.3841 -18.3263 6.7548 -15.7972 -38.813 16.018 -79.6291 -90.0 3.6166 53.9402 32.6082 2.8745 -20.5048 -10.1045 10.5393 -1.9133 -1.9773 -4.008 -0.0483 -1.1127 -2.197 -7.0503 -4.4631 0.1516 -0.1465 7.796 -4.6143 1.6293 1.648 -0.2966 2.5943 -23.923 -11.5998 14.1652 25.297 8.6981 80.7089 87.5741 -44.2179 13.8595 7.2569 -3.1417 11.1281 10.7303 0.4712 -2.7605 -1.2615 10.573 1.4508 -1.0436 -0.2231 1.1693 -0.6327 -0.0001 -0.004 0.4389 2.2509 0.8262 2.0703 -19.789 4.9965 10.4215 24.8117 -3.3454 -11.3043 8.1273 -16.9586 -6.9684 -28.5356 19.1081 -7.2322 11.9919 8.1797 
6.1202 38.1171 -10.9008 13.3938 4.7122 1.6389 -17.3907 -5.3707 -0.4093 -3.9492 -0.5854 -1.4071 22.6015 6.8782 -7.8554 -16.6028 -8.9377 -1.3762 -0.0156 0.3845 -18.302 6.7321 -15.8045 -38.7841 16.0761 -79.5576 -90.0 3.6912 53.8127 32.5145 2.9006 -20.3218 -10.1433 10.5461 -1.8875 -1.9601 -4.2986 -0.0796 -1.0355 -2.269 -6.9684 -4.4199 0.1446 -0.1323 7.8129 -4.6016 1.6435 1.6282 -0.2966 2.5925 -23.8851 -11.6142 14.1813 25.2814 8.6175 80.7354 87.6148 -43.8319 14.0183 7.4279 -3.415 11.0726 10.9062 0.4992 -2.7458 -1.2802 10.8713 1.5231 -1.0956 -0.2019 1.251 -0.6301 -0.0005 -0.0049 0.3003 2.328 0.7497 2.1427 -19.7975 5.0134 10.4216 24.846 -3.3517 -11.2986 8.1268 -16.9527 -6.9651 -28.5312 19.1109 -7.2318 11.9913 8.1712 
6.1192 38.1174 -10.9006 13.3962 4.7157 1.6368 -17.3588 -5.3725 -0.404 -4.0151 -0.5847 -1.3986 22.6068 6.8753 -7.8427 -16.5626 -8.9299 -1.3722 -0.0151 0.3738 -18.2712 6.7078 -15.8116 -38.7788 16.0497 -79.5614 -90.0 3.8511 53.8831 32.4503 2.8945 -20.3856 -10.1417 10.5192 -1.8789 -1.9687 -4.1816 -0.0816 -1.0243 -2.2807 -6.7788 -4.3121 0.1338 -0.1229 7.7535 -4.9018 1.5969 1.6613 -0.3073 2.66 -23.7378 -11.59 14.0889 25.2462 8.5713 80.7309 87.612 -43.7386 14.3638 7.5973 -3.8307 11.2554 10.8819 0.4954 -2.7475 -1.3517 10.7139 1.4847 -1.0794 -0.2097 1.0792 -0.6371 0.0 -0.0044 0.2009 2.4137 0.7033 2.1622 -19.7888 5.0034 10.4214 24.8189 -3.3412 -11.3021 8.1256 -16.9533 -6.9606 -28.5305 19.108 -7.2272 12.004 8.1507 
6.1186 38.1175 -10.9002 13.3909 4.7171 1.639 -17.3888 -5.3625 -0.4145 -3.9619 -0.6177 -1.4106 22.6094 6.8751 -7.8162 -16.5684 -8.9012 -1.359 -0.0153 0.376 -18.2639 6.7135 -15.7854 -38.7506 16.0091 -79.5434 -90.0 4.2895 53.6324 32.3217 2.8641 -20.0689 -10.1528 10.5578 -1.903 -1.9572 -3.9536 -0.0601 -1.0636 -2.2419 -6.9311 -4.3959 0.1396 -0.1543 7.7229 -4.9246 1.5972 1.6738 -0.3025 2.6491 -23.842 -11.5769 14.1515 25.1933 8.5206 80.7289 87.6267 -43.8925 14.0269 7.2523 -3.6843 11.2604 10.6458 0.4406 -2.7344 -1.3398 10.6606 1.4742 -1.0993 -0.1954 1.1677 -0.6517 -0.0002 -0.0038 0.3979 2.3298 0.7252 1.4467 -19.7797 5.0012 10.4237 24.8111 -3.3394 -11.3052 8.1334 -16.9457 -6.9615 -28.5304 19.1049 -7.2303 12.0063 8.1743 
6.1179 38.1168 -10.8997 13.3922 4.7028 1.634 -17.404 -5.3697 -0.405 -3.9388 -0.6036 -1.4026 22.5892 6.884 -7.8227 -16.5583 -8.8792 -1.3592 -0.0156 0.3825 -18.2651 6.7154 -15.8015 -38.7484 16.0036 -79.5556 -90.0 3.9519 54.4831 31.9515 2.9466 -20.5089 -10.1979 10.6221 -1.8722 -2.0537 -4.0706 -0.0632 -1.0197 -2.2822 -6.9623 -4.4093 0.1394 -0.1384 7.7105 -4.9706 1.5941 1.6818 -0.3007 2.6342 -23.9777 -11.6492 14.1383 25.2029 9.0803 80.9471 87.6119 -43.8097 13.8579 7.1024 -3.6572 11.1106 10.7191 0.4518 -2.8284 -1.215 10.7748 1.5022 -1.1022 -0.2145 1.2052 -0.6453 -0.0002 -0.0037 0.252 2.4604 0.4752 1.798 -19.7769 5.0119 10.4341 24.8112 -3.3503 -11.3102 8.1272 -16.9473 -6.9513 -28.5157 19.1032 -7.228 12.0104 8.1567 
6.1172 38.1169 -10.8991 13.3967 4.6963 1.6332 -17.411 -5.3811 -0.3949 -3.9389 -0.5839 -1.3931 22.5912 6.8764 -7.8131 -16.5609 -8.8816 -1.3572 -0.0152 0.3735 -18.2656 6.6996 -15.8092 -38.7383 16.0061 -79.5621 -90.0 4.1789 54.4981 31.7892 2.9313 -20.5103 -10.2341 10.655 -1.8834 -1.9945 -4.0923 -0.073 -1.0053 -2.3019 -7.059 -4.4659 0.145 -0.1393 7.7007 -4.993 1.5987 1.6713 -0.3123 2.691 -23.8209 -11.6203 14.0607 25.1907 9.0071 80.9577 87.6107 -44.0645 13.9115 7.0652 -3.668 11.0581 10.4798 0.4138 -2.7657 -1.2638 10.5856 1.4555 -1.1058 -0.1809 1.1548 -0.6425 -0.0005 -0.0042 0.2545 2.46 0.497 1.8024 -19.7781 5.0149 10.4322 24.81 -3.3536 -11.3139 8.126 -16.9518 -6.9481 -28.5171 19.101 -7.2288 12.0025 8.1644 
6.1168 38.1169 -10.8991 13.3974 4.6936 1.6323 -17.4132 -5.3843 -0.3954 -3.9403 -0.5828 -1.3936 22.5952 6.8779 -7.8071 -16.5649 -8.872 -1.359 -0.0152 0.3725 -18.2545 6.7025 -15.8054 -38.7266 16.0427 -79.574 -90.0 4.2348 54.3535 31.6991 2.9637 -20.3936 -10.3044 10.7363 -1.9311 -1.918 -4.1097 -0.0788 -0.9928 -2.3184 -7.1442 -4.5132 0.1469 -0.1322 7.6838 -5.0367 1.6003 1.6685 -0.3133 2.6978 -23.8136 -11.6283 14.0605 25.1708 9.0189 80.981 87.6241 -44.1853 14.0916 7.3239 -3.4896 10.9397 10.5327 0.4164 -2.8226 -1.2847 10.3663 1.4045 -1.1006 -0.1895 0.9606 -0.6875 -0.0002 -0.0028 -0.0065 2.5803 0.4716 1.7987 -19.777 5.0159 10.4335 24.7962 -3.3661 -11.2415 8.2004 -16.9516 -6.9484 -28.5176 19.1011 -7.2316 11.9966 8.1602 
6.1173 38.1167 -10.8988 13.3959 4.6988 1.6302 -17.4249 -5.3821 -0.408 -3.927 -0.586 -1.4074 22.6088 6.8711 -7.779 -16.5628 -8.8518 -1.3615 -0.0152 0.3706 -18.2401 6.7372 -15.7951 -38.7602 15.9921 -79.631 -90.0 4.6553 53.8794 31.767 2.9277 -20.3361 -10.6007 11.0688 -1.8595 -2.0219 -4.5156 -0.1121 -0.902 -2.3956 -7.2338 -4.575 0.1554 -0.1404 7.7541 -4.8143 1.6242 1.6618 -0.3003 2.6313 -23.9707 -11.6731 14.1551 25.146 9.1544 80.9936 87.6373 -43.8986 13.8536 6.9043 -3.6774 11.0787 10.3061 0.3831 -2.7662 -1.2799 10.3639 1.4026 -1.0744 -0.2362 1.0484 -0.6543 -0.0003 -0.0034 -0.0435 2.6211 0.4408 1.7898 -19.7892 5.025 10.4248 24.8237 -3.3736 -11.2393 8.2218 -16.9468 -6.9504 -28.522 19.1004 -7.232 11.9966 8.1713 
6.1165 38.1174 -10.8986 13.4024 4.7016 1.6307 -17.4026 -5.3861 -0.414 -3.9904 -0.5901 -1.4107 22.6462 6.878 -7.7553 -16.5609 -8.8272 -1.3698 -0.0148 0.3664 -18.2329 6.7298 -15.7798 -38.7306 15.9552 -79.6251 -90.0 4.5465 54.1802 31.5365 2.9524 -20.5629 -10.4718 10.9082 -1.9052 -1.9545 -4.1088 -0.0958 -0.9469 -2.3542 -7.0995 -4.4885 0.1437 -0.1265 7.7426 -4.8416 1.6249 1.6458 -0.298 2.6281 -24.0003 -11.6961 14.1693 25.131 9.1687 81.0264 87.6517 -44.0324 13.6672 6.8325 -3.3871 11.0178 10.2497 0.373 -2.7468 -1.3085 10.427 1.4176 -1.0957 -0.2177 1.0928 -0.6533 -0.0005 -0.0035 0.1095 2.5219 0.5222 1.774 -19.7809 5.0155 10.4303 24.7908 -3.3625 -11.2336 8.2069 -16.9498 -6.9509 -28.5222 19.0959 -7.2274 12.0054 8.1609 
6.1158 38.1168 -10.8987 13.3983 4.7003 1.6318 -17.4287 -5.3926 -0.4097 -3.9355 -0.5862 -1.4082 22.6253 6.8745 -7.7531 -16.5651 -8.8172 -1.3656 -0.0149 0.3638 -18.2399 6.7287 -15.7709 -38.7127 15.9197 -79.7088 -90.0 4.4222 54.1356 31.5277 2.9853 -20.3596 -10.6304 11.0604 -1.8581 -1.9964 -4.0765 -0.1022 -0.9284 -2.3748 -6.997 -4.4334 0.1357 -0.1152 7.7424 -4.8604 1.6265 1.6392 -0.2991 2.6252 -24.0114 -11.7159 14.1725 25.114 9.2207 80.9873 87.6599 -43.8473 14.12 7.2584 -3.6682 11.1395 10.2563 0.3793 -2.7843 -1.3152 10.3668 1.4032 -1.121 -0.1826 0.9194 -0.6634 -0.0003 -0.0033 -0.0894 2.6207 0.5225 1.7607 -19.7754 5.0156 10.4347 24.7883 -3.366 -11.2429 8.2234 -16.9446 -6.9504 -28.5168 19.0937 -7.2314 12.004 8.168 
6.1143 38.1167 -10.8986 13.405 4.685 1.6328 -17.4115 -5.3992 -0.4062 -3.9889 -0.5758 -1.4031 22.6452 6.8631 -7.7267 -16.5552 -8.8149 -1.3636 -0.0145 0.3601 -18.2372 6.7393 -15.7608 -38.6988 15.9354 -79.7454 -90.0 4.3897 54.2512 31.4331 2.9877 -20.4455 -10.6094 11.0291 -1.9061 -1.9978 -4.0403 -0.1096 -0.9144 -2.4049 -7.0088 -4.4487 0.1412 -0.1187 7.768 -4.8242 1.6299 1.6402 -0.2981 2.6254 -23.9743 -11.7174 14.1781 25.1045 9.1417 80.9115 87.6693 -43.7302 14.423 7.4105 -3.9201 11.0518 10.3392 0.3869 -2.879 -1.2504 10.2756 1.3814 -1.0964 -0.2083 0.8411 -0.6746 0.0 -0.0029 0.0008 2.5494 0.8355 1.168 -19.7748 5.0229 10.4466 24.7817 -3.3668 -11.2482 8.2185 -16.9511 -6.9431 -28.5057 19.0861 -7.2314 11.9987 8.168 
6.1149 38.1163 -10.8989 13.3989 4.6857 1.6321 -17.4316 -5.3991 -0.4069 -3.9388 -0.5761 -1.4057 22.6179 6.8494 -7.7181 -16.5577 -8.8136 -1.3526 -0.015 0.366 -18.2353 6.7612 -15.7637 -38.7265 15.9236 -79.7908 -90.0 4.6299 54.2563 31.3404 2.9517 -20.415 -10.7399 11.1812 -1.872 -1.9966 -3.9627 -0.1092 -0.9077 -2.4131 -6.8984 -4.375 0.1405 -0.1414 7.801 -4.6346 1.6287 1.6561 -0.2977 2.6114 -23.9376 -11.7401 14.1994 25.1225 9.1928 80.872 87.6746 -43.4413 14.4663 7.3647 -3.9764 11.252 10.1382 0.3701 -2.8589 -1.3008 10.0844 1.3352 -1.1087 -0.1904 0.5521 -0.7027 0.0003 -0.0029 -0.2504 2.604 0.7326 2.2088 -19.7863 5.0306 10.436 24.8175 -3.3765 -11.2467 8.2198 -16.9453 -6.9458 -28.5097 19.0888 -7.2365 11.994 8.1774 
